<svg width="32" height="33" viewBox="0 0 32 33" fill="none" xmlns="http://www.w3.org/2000/svg">
<path fill-rule="evenodd" clip-rule="evenodd" d="M30 16.5C30 12.787 28.525 9.22601 25.8995 6.60051C23.274 3.975 19.713 2.5 16 2.5C12.287 2.5 8.72602 3.97499 6.10051 6.6005C3.475 9.22601 2 12.787 2 16.5C2 20.213 3.475 23.774 6.10051 26.3995C8.72602 29.025 12.287 30.5 16 30.5C19.713 30.5 23.274 29.025 25.8995 26.3995C28.525 23.774 30 20.213 30 16.5ZM1.39876e-06 16.5C1.76974e-06 12.2565 1.68571 8.18687 4.68629 5.18629C7.68688 2.18571 11.7565 0.499998 16 0.499999C20.2435 0.499999 24.3131 2.18571 27.3137 5.18629C30.3143 8.18687 32 12.2565 32 16.5C32 20.7435 30.3143 24.8131 27.3137 27.8137C24.3131 30.8143 20.2435 32.5 16 32.5C11.7565 32.5 7.68687 30.8143 4.68629 27.8137C1.68571 24.8131 1.02779e-06 20.7435 1.39876e-06 16.5ZM23 17.5C23.2652 17.5 23.5196 17.3946 23.7071 17.2071C23.8946 17.0196 24 16.7652 24 16.5C24 16.2348 23.8946 15.9804 23.7071 15.7929C23.5196 15.6054 23.2652 15.5 23 15.5L11.414 15.5L15.708 11.208C15.801 11.115 15.8747 11.0046 15.925 10.8832C15.9754 10.7617 16.0013 10.6315 16.0013 10.5C16.0013 10.3685 15.9754 10.2383 15.925 10.1168C15.8747 9.99535 15.801 9.88497 15.708 9.792C15.615 9.69902 15.5046 9.62527 15.3832 9.57495C15.2617 9.52463 15.1315 9.49874 15 9.49874C14.8685 9.49874 14.7383 9.52463 14.6168 9.57495C14.4954 9.62527 14.385 9.69902 14.292 9.792L8.292 15.792C8.19887 15.8849 8.12499 15.9952 8.07458 16.1167C8.02416 16.2382 7.99821 16.3685 7.99821 16.5C7.99821 16.6315 8.02416 16.7618 8.07458 16.8833C8.12499 17.0048 8.19887 17.1151 8.292 17.208L14.292 23.208C14.385 23.301 14.4954 23.3747 14.6168 23.425C14.7383 23.4754 14.8685 23.5013 15 23.5013C15.1315 23.5013 15.2617 23.4754 15.3832 23.425C15.5046 23.3747 15.615 23.301 15.708 23.208C15.801 23.115 15.8747 23.0046 15.925 22.8832C15.9754 22.7617 16.0013 22.6315 16.0013 22.5C16.0013 22.3685 15.9754 22.2383 15.925 22.1168C15.8747 21.9954 15.801 21.885 15.708 21.792L11.414 17.5L23 17.5Z" fill="#005EB8"/>
</svg>
