<svg width="33" height="33" viewBox="0 0 33 33" fill="none" xmlns="http://www.w3.org/2000/svg">
<path fill-rule="evenodd" clip-rule="evenodd" d="M16.75 2.75C13.037 2.75 9.47601 4.22499 6.85051 6.8505C4.225 9.47601 2.75 13.037 2.75 16.75C2.75 20.463 4.225 24.024 6.8505 26.6495C9.47601 29.275 13.037 30.75 16.75 30.75C20.463 30.75 24.024 29.275 26.6495 26.6495C29.275 24.024 30.75 20.463 30.75 16.75C30.75 13.037 29.275 9.47601 26.6495 6.8505C24.024 4.225 20.463 2.75 16.75 2.75ZM16.75 32.75C12.5065 32.75 8.43687 31.0643 5.43629 28.0637C2.43571 25.0631 0.749999 20.9935 0.749999 16.75C0.749999 12.5065 2.43571 8.43687 5.43629 5.43629C8.43687 2.43571 12.5065 0.749999 16.75 0.749999C20.9935 0.749999 25.0631 2.43571 28.0637 5.43629C31.0643 8.43687 32.75 12.5065 32.75 16.75C32.75 20.9935 31.0643 25.0631 28.0637 28.0637C25.0631 31.0643 20.9935 32.75 16.75 32.75ZM17.75 9.75C17.75 9.48478 17.6446 9.23043 17.4571 9.04289C17.2696 8.85536 17.0152 8.75 16.75 8.75C16.4848 8.75 16.2304 8.85536 16.0429 9.04289C15.8554 9.23043 15.75 9.48478 15.75 9.75L15.75 21.336L11.458 17.042C11.365 16.949 11.2546 16.8753 11.1332 16.825C11.0117 16.7746 10.8815 16.7487 10.75 16.7487C10.6185 16.7487 10.4883 16.7746 10.3668 16.825C10.2454 16.8753 10.135 16.949 10.042 17.042C9.94902 17.135 9.87527 17.2454 9.82495 17.3668C9.77463 17.4883 9.74874 17.6185 9.74874 17.75C9.74874 17.8815 9.77463 18.0117 9.82495 18.1332C9.87527 18.2546 9.94902 18.365 10.042 18.458L16.042 24.458C16.1349 24.5511 16.2452 24.625 16.3667 24.6754C16.4882 24.7258 16.6185 24.7518 16.75 24.7518C16.8815 24.7518 17.0118 24.7258 17.1333 24.6754C17.2548 24.625 17.3651 24.5511 17.458 24.458L23.458 18.458C23.551 18.365 23.6247 18.2546 23.675 18.1332C23.7254 18.0117 23.7513 17.8815 23.7513 17.75C23.7513 17.6185 23.7254 17.4883 23.675 17.3668C23.6247 17.2454 23.551 17.135 23.458 17.042C23.365 16.949 23.2546 16.8753 23.1332 16.825C23.0117 16.7746 22.8815 16.7487 22.75 16.7487C22.6185 16.7487 22.4883 16.7746 22.3668 16.825C22.2454 16.8753 22.135 16.949 22.042 17.042L17.75 21.336L17.75 9.75Z" fill="#005EB8"/>
</svg>
