<svg width="33" height="32" viewBox="0 0 33 32" fill="none" xmlns="http://www.w3.org/2000/svg">
<path fill-rule="evenodd" clip-rule="evenodd" d="M2.5 16C2.5 19.713 3.975 23.274 6.6005 25.8995C9.22601 28.525 12.787 30 16.5 30C20.213 30 23.774 28.525 26.3995 25.8995C29.025 23.274 30.5 19.713 30.5 16C30.5 12.287 29.025 8.72601 26.3995 6.1005C23.774 3.475 20.213 2 16.5 2C12.787 2 9.22601 3.475 6.6005 6.1005C3.975 8.72601 2.5 12.287 2.5 16ZM32.5 16C32.5 20.2435 30.8143 24.3131 27.8137 27.3137C24.8131 30.3143 20.7435 32 16.5 32C12.2565 32 8.18687 30.3143 5.18629 27.3137C2.18571 24.3131 0.5 20.2435 0.5 16C0.5 11.7565 2.18571 7.68687 5.18629 4.68629C8.18687 1.68571 12.2565 0 16.5 0C20.7435 0 24.8131 1.68571 27.8137 4.68629C30.8143 7.68687 32.5 11.7565 32.5 16ZM9.5 15C9.23478 15 8.98043 15.1054 8.79289 15.2929C8.60536 15.4804 8.5 15.7348 8.5 16C8.5 16.2652 8.60536 16.5196 8.79289 16.7071C8.98043 16.8946 9.23478 17 9.5 17H21.086L16.792 21.292C16.699 21.385 16.6253 21.4954 16.575 21.6168C16.5246 21.7383 16.4987 21.8685 16.4987 22C16.4987 22.1315 16.5246 22.2617 16.575 22.3832C16.6253 22.5046 16.699 22.615 16.792 22.708C16.885 22.801 16.9954 22.8747 17.1168 22.925C17.2383 22.9754 17.3685 23.0013 17.5 23.0013C17.6315 23.0013 17.7617 22.9754 17.8832 22.925C18.0046 22.8747 18.115 22.801 18.208 22.708L24.208 16.708C24.3011 16.6151 24.375 16.5048 24.4254 16.3833C24.4758 16.2618 24.5018 16.1315 24.5018 16C24.5018 15.8685 24.4758 15.7382 24.4254 15.6167C24.375 15.4952 24.3011 15.3849 24.208 15.292L18.208 9.292C18.115 9.19902 18.0046 9.12527 17.8832 9.07495C17.7617 9.02463 17.6315 8.99874 17.5 8.99874C17.3685 8.99874 17.2383 9.02463 17.1168 9.07495C16.9954 9.12527 16.885 9.19902 16.792 9.292C16.699 9.38498 16.6253 9.49535 16.575 9.61683C16.5246 9.73831 16.4987 9.86851 16.4987 10C16.4987 10.1315 16.5246 10.2617 16.575 10.3832C16.6253 10.5046 16.699 10.615 16.792 10.708L21.086 15H9.5Z" fill="#008C96"/>
</svg>
