<svg width="33" height="33" viewBox="0 0 33 33" fill="none" xmlns="http://www.w3.org/2000/svg">
<path fill-rule="evenodd" clip-rule="evenodd" d="M16.25 2.75C12.537 2.75 8.97601 4.22499 6.35051 6.8505C3.725 9.47601 2.25 13.037 2.25 16.75C2.25 20.463 3.725 24.024 6.3505 26.6495C8.97601 29.275 12.537 30.75 16.25 30.75C19.963 30.75 23.524 29.275 26.1495 26.6495C28.775 24.024 30.25 20.463 30.25 16.75C30.25 13.037 28.775 9.47601 26.1495 6.8505C23.524 4.225 19.963 2.75 16.25 2.75ZM16.25 32.75C12.0065 32.75 7.93687 31.0643 4.93629 28.0637C1.93571 25.0631 0.249999 20.9935 0.249999 16.75C0.249999 12.5065 1.93571 8.43687 4.93629 5.43629C7.93687 2.43571 12.0065 0.749999 16.25 0.749999C20.4935 0.749999 24.5631 2.43571 27.5637 5.43629C30.5643 8.43687 32.25 12.5065 32.25 16.75C32.25 20.9935 30.5643 25.0631 27.5637 28.0637C24.5631 31.0643 20.4935 32.75 16.25 32.75ZM17.25 9.75C17.25 9.48478 17.1446 9.23043 16.9571 9.04289C16.7696 8.85536 16.5152 8.75 16.25 8.75C15.9848 8.75 15.7304 8.85536 15.5429 9.04289C15.3554 9.23043 15.25 9.48478 15.25 9.75L15.25 21.336L10.958 17.042C10.865 16.949 10.7546 16.8753 10.6332 16.825C10.5117 16.7746 10.3815 16.7487 10.25 16.7487C10.1185 16.7487 9.98831 16.7746 9.86683 16.825C9.74535 16.8753 9.63497 16.949 9.542 17.042C9.44902 17.135 9.37527 17.2454 9.32495 17.3668C9.27463 17.4883 9.24874 17.6185 9.24874 17.75C9.24874 17.8815 9.27463 18.0117 9.32495 18.1332C9.37527 18.2546 9.44902 18.365 9.542 18.458L15.542 24.458C15.6349 24.5511 15.7452 24.625 15.8667 24.6754C15.9882 24.7258 16.1185 24.7518 16.25 24.7518C16.3815 24.7518 16.5118 24.7258 16.6333 24.6754C16.7548 24.625 16.8651 24.5511 16.958 24.458L22.958 18.458C23.051 18.365 23.1247 18.2546 23.175 18.1332C23.2254 18.0117 23.2513 17.8815 23.2513 17.75C23.2513 17.6185 23.2254 17.4883 23.175 17.3668C23.1247 17.2454 23.051 17.135 22.958 17.042C22.865 16.949 22.7546 16.8753 22.6332 16.825C22.5117 16.7746 22.3815 16.7487 22.25 16.7487C22.1185 16.7487 21.9883 16.7746 21.8668 16.825C21.7454 16.8753 21.635 16.949 21.542 17.042L17.25 21.336L17.25 9.75Z" fill="white"/>
</svg>
