<svg width="33" height="33" viewBox="0 0 33 33" fill="none" xmlns="http://www.w3.org/2000/svg">
<path fill-rule="evenodd" clip-rule="evenodd" d="M2.5 16.5C2.5 20.213 3.975 23.774 6.6005 26.3995C9.22601 29.025 12.787 30.5 16.5 30.5C20.213 30.5 23.774 29.025 26.3995 26.3995C29.025 23.774 30.5 20.213 30.5 16.5C30.5 12.787 29.025 9.22601 26.3995 6.6005C23.774 3.975 20.213 2.5 16.5 2.5C12.787 2.5 9.22601 3.975 6.6005 6.6005C3.975 9.22601 2.5 12.787 2.5 16.5ZM32.5 16.5C32.5 20.7435 30.8143 24.8131 27.8137 27.8137C24.8131 30.8143 20.7435 32.5 16.5 32.5C12.2565 32.5 8.18687 30.8143 5.18629 27.8137C2.18571 24.8131 0.5 20.7435 0.5 16.5C0.5 12.2565 2.18571 8.18687 5.18629 5.18629C8.18687 2.18571 12.2565 0.5 16.5 0.5C20.7435 0.5 24.8131 2.18571 27.8137 5.18629C30.8143 8.18687 32.5 12.2565 32.5 16.5ZM9.5 15.5C9.23478 15.5 8.98043 15.6054 8.79289 15.7929C8.60536 15.9804 8.5 16.2348 8.5 16.5C8.5 16.7652 8.60536 17.0196 8.79289 17.2071C8.98043 17.3946 9.23478 17.5 9.5 17.5H21.086L16.792 21.792C16.699 21.885 16.6253 21.9954 16.575 22.1168C16.5246 22.2383 16.4987 22.3685 16.4987 22.5C16.4987 22.6315 16.5246 22.7617 16.575 22.8832C16.6253 23.0046 16.699 23.115 16.792 23.208C16.885 23.301 16.9954 23.3747 17.1168 23.425C17.2383 23.4754 17.3685 23.5013 17.5 23.5013C17.6315 23.5013 17.7617 23.4754 17.8832 23.425C18.0046 23.3747 18.115 23.301 18.208 23.208L24.208 17.208C24.3011 17.1151 24.375 17.0048 24.4254 16.8833C24.4758 16.7618 24.5018 16.6315 24.5018 16.5C24.5018 16.3685 24.4758 16.2382 24.4254 16.1167C24.375 15.9952 24.3011 15.8849 24.208 15.792L18.208 9.792C18.115 9.69902 18.0046 9.62527 17.8832 9.57495C17.7617 9.52464 17.6315 9.49874 17.5 9.49874C17.3685 9.49874 17.2383 9.52464 17.1168 9.57495C16.9954 9.62527 16.885 9.69902 16.792 9.792C16.699 9.88498 16.6253 9.99535 16.575 10.1168C16.5246 10.2383 16.4987 10.3685 16.4987 10.5C16.4987 10.6315 16.5246 10.7617 16.575 10.8832C16.6253 11.0046 16.699 11.115 16.792 11.208L21.086 15.5H9.5Z" fill="#005EB8"/>
</svg>
