<svg width="31" height="30" viewBox="0 0 31 30" fill="none" xmlns="http://www.w3.org/2000/svg">
<path d="M15.746 9.99787C12.9917 9.99787 10.7439 12.2456 10.7439 15C10.7439 17.7544 12.9917 20.0021 15.746 20.0021C18.5003 20.0021 20.748 17.7544 20.748 15C20.748 12.2456 18.5003 9.99787 15.746 9.99787ZM30.7483 15C30.7483 12.9286 30.7671 10.876 30.6508 8.80832C30.5344 6.40669 29.9866 4.27525 28.2304 2.51907C26.4705 0.759128 24.3429 0.215011 21.9413 0.098682C19.8699 -0.0176466 17.8173 0.00111617 15.7497 0.00111617C13.6784 0.00111617 11.6258 -0.0176466 9.55815 0.098682C7.15658 0.215011 5.02517 0.762881 3.26902 2.51907C1.50911 4.27901 0.965007 6.40669 0.84868 8.80832C0.732354 10.8797 0.751116 12.9324 0.751116 15C0.751116 17.0676 0.732354 19.124 0.84868 21.1917C0.965007 23.5933 1.51287 25.7247 3.26902 27.4809C5.02893 29.2409 7.15658 29.785 9.55815 29.9013C11.6295 30.0176 13.6821 29.9989 15.7497 29.9989C17.8211 29.9989 19.8737 30.0176 21.9413 29.9013C24.3429 29.785 26.4743 29.2371 28.2304 27.4809C29.9903 25.721 30.5344 23.5933 30.6508 21.1917C30.7708 19.124 30.7483 17.0714 30.7483 15ZM15.746 22.6964C11.4869 22.6964 8.04966 19.2591 8.04966 15C8.04966 10.7409 11.4869 7.30355 15.746 7.30355C20.005 7.30355 23.4423 10.7409 23.4423 15C23.4423 19.2591 20.005 22.6964 15.746 22.6964ZM23.7575 8.7858C22.7631 8.7858 21.9601 7.98276 21.9601 6.98834C21.9601 5.99392 22.7631 5.19087 23.7575 5.19087C24.7519 5.19087 25.5549 5.99392 25.5549 6.98834C25.5552 7.22447 25.5089 7.45834 25.4187 7.67655C25.3285 7.89476 25.1961 8.09303 25.0291 8.26C24.8622 8.42697 24.6639 8.55936 24.4457 8.64958C24.2275 8.73981 23.9936 8.7861 23.7575 8.7858Z" fill="#003865"/>
</svg>
