<svg width="138" height="48" viewBox="0 0 138 48" fill="none" xmlns="http://www.w3.org/2000/svg">
<path d="M48.5 0H0.5V48H48.5V0Z" fill="#005EB8"/>
<path d="M8.81149 34.7699C9.16201 34.7699 9.62711 34.8992 9.90595 35.2554L9.96239 35.3304L10.8294 34.6937L10.7684 34.6136C10.5229 34.3021 10.2102 34.0501 9.85367 33.8764C9.49712 33.7027 9.10593 33.6118 8.70932 33.6106C7.27055 33.6106 6.10271 34.7931 6.10271 36.2409C6.10271 37.6887 7.27055 38.8735 8.70932 38.8735C9.10486 38.8718 9.49483 38.7802 9.84972 38.6055C10.2046 38.4309 10.5151 38.1778 10.7577 37.8654L10.8141 37.7903L9.95506 37.144L9.89861 37.2349C9.68186 37.5843 9.17556 37.7073 8.81262 37.7073C8.09464 37.7073 7.53019 37.0678 7.53019 36.2398C7.53019 35.4117 8.09464 34.7722 8.81262 34.7722" fill="white"/>
<path d="M14.6845 33.6106C13.1826 33.6106 11.9628 34.7925 11.9628 36.2409C11.9628 37.6893 13.1826 38.8735 14.6845 38.8735C16.1865 38.8735 17.4052 37.696 17.4052 36.2409C17.4052 34.7857 16.1837 33.6106 14.6845 33.6106ZM14.6845 37.7073C13.9705 37.7073 13.3897 37.0514 13.3897 36.2398C13.3897 35.4281 13.9705 34.7722 14.6845 34.7722C15.3986 34.7722 15.9873 35.4281 15.9873 36.2398C15.9873 37.0514 15.4014 37.7051 14.6845 37.7051" fill="white"/>
<path d="M26.3957 33.6106C24.892 33.6106 23.6717 34.7925 23.6717 36.2409C23.6717 37.6893 24.892 38.8735 26.3957 38.8735C27.8994 38.8735 29.1129 37.696 29.1129 36.2409C29.1129 34.7857 27.8932 33.6106 26.3957 33.6106ZM26.3957 37.7073C25.6805 37.7073 25.0975 37.0514 25.0975 36.2398C25.0975 35.4281 25.6794 34.7722 26.3957 34.7722C27.112 34.7722 27.6939 35.4281 27.6939 36.2398C27.6939 37.0514 27.1114 37.7073 26.3957 37.7073Z" fill="white"/>
<path d="M33.1414 33.6828C33.1183 33.6902 33.2193 33.6653 33.2193 33.6653C33.3705 33.6318 33.5245 33.6129 33.6793 33.6089C33.7564 33.6053 33.8336 33.6081 33.9102 33.6173C35.1401 33.7043 35.9885 34.6689 35.9885 36.0264V38.7673H34.6208V36.0529C34.6208 35.1904 34.0795 34.8027 33.5382 34.8027C32.9738 34.8027 32.3529 35.2491 32.3529 35.852V38.769H30.9841V33.7116L31.1653 33.8375C31.393 33.9662 31.6499 34.0346 31.9115 34.0362C32.1398 34.0337 32.3653 33.9855 32.5747 33.8945C32.5747 33.8945 32.989 33.7251 33.1391 33.6834" fill="white"/>
<path d="M41.3547 38.5568C41.5438 38.478 41.7464 38.4368 41.9513 38.4355C42.2964 38.4341 42.631 38.554 42.8967 38.7741V33.7105L42.7234 33.8363C42.4936 33.9639 42.2356 34.032 41.9727 34.0345C41.7443 34.0337 41.5186 33.9859 41.3095 33.8939C41.3095 33.8939 41.2711 33.8753 41.2175 33.8533C41.1786 33.8414 40.9579 33.7404 40.8896 33.7156C40.8771 33.7156 40.7846 33.6902 40.7524 33.6806C40.6197 33.6513 40.4853 33.6302 40.3499 33.6173C40.3042 33.6173 40.2664 33.6106 40.2235 33.6106H40.1975C38.8316 33.6106 37.7264 34.7925 37.7264 36.2409C37.7495 37.7141 38.8316 38.8735 40.1975 38.8735C40.5342 38.8744 40.8667 38.7992 41.1701 38.6534L41.3547 38.5568ZM40.3347 37.7051C39.6873 37.7051 39.1584 37.0492 39.1584 36.2375C39.1584 35.4258 39.6873 34.7699 40.3347 34.7699C40.9929 34.7699 41.524 35.4258 41.524 36.2375C41.524 37.0492 40.9929 37.7051 40.3347 37.7051Z" fill="white"/>
<path d="M20.5751 35.852C20.5764 35.6513 20.6476 35.4574 20.7764 35.3035C20.9051 35.1497 21.0834 35.0454 21.2807 35.0087C21.3258 35.0014 21.9151 34.9026 22.2718 35.357V33.6495C22.1291 33.6253 21.9848 33.6122 21.84 33.6106C21.5071 33.6109 21.1787 33.6882 20.8805 33.8363L20.7569 33.8984C20.5625 33.9891 20.3504 34.0356 20.136 34.0345C19.8726 34.0344 19.614 33.9641 19.387 33.8307L19.2097 33.7105V38.7685H20.5751V35.852Z" fill="white"/>
<path d="M56.5 0V48" stroke="#003865" stroke-width="0.5"/>
<g clip-path="url(#clip0_128_145)">
<path d="M64.5 37.838C65.2475 34.7697 67.6919 34.3432 70.1768 34.2392C72.0253 34.2363 73.8717 34.3683 75.702 34.6345C75.8515 34.6901 75.9861 34.7813 76.0949 34.9005C76.2038 35.0198 76.2837 35.1639 76.3283 35.321C76.3697 36.1629 76.3697 37.0065 76.3283 37.8484L74.7323 37.7548C73.1667 37.7548 71.601 37.6404 70.0354 37.6404C69.8389 37.6161 69.6396 37.636 69.4513 37.699C69.2631 37.7619 69.0904 37.8663 68.9453 38.0048C68.8002 38.1434 68.686 38.3128 68.6109 38.5013C68.5358 38.6899 68.5014 38.893 68.5101 39.0966C68.5101 40.5215 68.5101 41.9569 68.5101 43.3923C68.5101 44.318 69.1162 44.682 69.9141 44.734C70.7121 44.786 71.6616 44.734 72.6616 44.734V41.1352H76.2071V47.3759L73.4697 48.0312H68.2677C66.5101 47.4487 65.0152 46.5646 64.5 44.578V37.838Z" fill="#49999F"/>
<path d="M88.4293 43.2571L91.1768 47.844C89.6919 47.844 88.3687 47.844 87.0354 47.844C86.9469 47.834 86.8615 47.8047 86.7848 47.7581C86.7082 47.7115 86.6421 47.6486 86.5909 47.5736C85.4293 45.5453 84.298 43.5067 83.0657 41.3328H85.1566C85.3126 41.3533 85.4711 41.3378 85.6206 41.2875C85.7701 41.2371 85.9069 41.1531 86.021 41.0416C86.1351 40.9301 86.2237 40.7939 86.2803 40.6427C86.337 40.4916 86.3602 40.3294 86.3485 40.1679C86.4899 37.8276 86.3485 37.6716 84.0455 37.6716H82.4495V47.792H78.4091V34.6553C78.5155 34.6106 78.6279 34.5825 78.7424 34.5721C81.5909 34.5721 84.4394 34.5721 87.2879 34.7593C89.4596 34.8945 90.3182 36.6939 90.3182 38.4517C90.3182 38.8366 90.3182 39.2214 90.3182 39.5958C90.4192 40.3333 90.2908 41.0848 89.9515 41.7425C89.6122 42.4002 89.0793 42.9304 88.4293 43.2571Z" fill="#4A9AA0"/>
<path d="M111.187 47.844L114.076 38.2437C114.379 37.2036 114.631 36.2259 114.975 35.2377C115.037 35.0849 115.133 34.9494 115.256 34.8427C115.379 34.736 115.525 34.661 115.682 34.6241C117.217 34.6241 118.712 34.6241 120.298 34.6241C120.785 34.5978 121.266 34.7403 121.666 35.0287C122.065 35.3172 122.358 35.735 122.5 36.2155C123.51 39.9079 124.52 43.6211 125.53 47.3239C125.551 47.4862 125.551 47.6505 125.53 47.8128H121.429L120.884 45.9094C119.338 45.9094 117.773 45.9094 116.217 45.9614C115.955 45.9614 115.571 46.5854 115.5 47.0015C115.348 47.7712 114.955 47.9376 114.258 47.896C113.308 47.7712 112.328 47.844 111.187 47.844ZM120.086 42.789C119.712 41.2912 119.369 39.8455 118.985 38.4205C118.874 38.182 118.689 37.9881 118.46 37.8692C118.399 37.8692 118.086 38.0669 118.035 38.2229C117.591 39.7207 117.167 41.2288 116.732 42.789H120.086Z" fill="#49999F"/>
<path d="M108.53 47.844C106.763 47.844 105.076 47.896 103.389 47.844C102.821 47.843 102.273 47.6327 101.843 47.251C101.413 46.8694 101.13 46.3417 101.045 45.7638C100.177 42.4562 99.298 39.1451 98.4091 35.8306C98.3081 35.4354 98.1768 35.0505 98.0253 34.5409C99.3485 34.5409 100.591 34.5409 101.833 34.5409C102.035 34.5409 102.318 34.9465 102.399 35.2169C103.035 37.5364 103.631 39.8767 104.237 42.2065C104.399 42.789 104.561 43.3715 104.753 43.9435C104.865 44.1402 105.001 44.3218 105.157 44.4844C105.328 44.2972 105.601 44.1516 105.662 43.9331C106.288 41.8529 106.874 39.7727 107.47 37.63C107.601 37.2036 107.753 36.7875 107.884 36.3611C108.086 35.7682 108.116 34.8841 108.53 34.6449C108.944 34.4056 109.854 34.5201 110.551 34.4993H112.47C111.146 39.0134 109.854 43.3611 108.53 47.844Z" fill="#49999F"/>
<path d="M126.712 47.844V34.6241H130.652V44.4948H136.298C135.884 45.6077 135.54 46.575 135.146 47.5424C135.086 47.688 134.803 47.792 134.611 47.8024L126.712 47.844Z" fill="#47999F"/>
<path d="M92.8232 34.6033H96.7222V47.74H92.8232V34.6033Z" fill="#47999F"/>
</g>
<defs>
<clipPath id="clip0_128_145">
<rect width="72" height="14" fill="white" transform="translate(64.5 34)"/>
</clipPath>
</defs>
</svg>
