<svg width="113" height="48" viewBox="0 0 113 48" fill="none" xmlns="http://www.w3.org/2000/svg">
<path d="M48 0H0V48H48V0Z" fill="white"/>
<path d="M8.31148 34.7699C8.662 34.7699 9.12711 34.8992 9.40595 35.2554L9.46239 35.3304L10.3294 34.6937L10.2684 34.6136C10.0229 34.3021 9.71022 34.0501 9.35367 33.8764C8.99711 33.7027 8.60592 33.6118 8.20932 33.6106C6.77054 33.6106 5.6027 34.7931 5.6027 36.2409C5.6027 37.6887 6.77054 38.8735 8.20932 38.8735C8.60485 38.8718 8.99483 38.7802 9.34972 38.6055C9.70461 38.4309 10.0151 38.1778 10.2577 37.8654L10.3141 37.7903L9.45505 37.144L9.39861 37.2349C9.18186 37.5843 8.67555 37.7073 8.31261 37.7073C7.59464 37.7073 7.03019 37.0678 7.03019 36.2397C7.03019 35.4117 7.59464 34.7722 8.31261 34.7722" fill="#005EB8"/>
<path d="M14.1846 33.6106C12.6826 33.6106 11.4628 34.7925 11.4628 36.2409C11.4628 37.6892 12.6826 38.8735 14.1846 38.8735C15.6865 38.8735 16.9052 37.696 16.9052 36.2409C16.9052 34.7857 15.6837 33.6106 14.1846 33.6106ZM14.1846 37.7073C13.4705 37.7073 12.8897 37.0514 12.8897 36.2397C12.8897 35.4281 13.4705 34.7722 14.1846 34.7722C14.8986 34.7722 15.4873 35.4281 15.4873 36.2397C15.4873 37.0514 14.9014 37.705 14.1846 37.705" fill="#005EB8"/>
<path d="M25.8957 33.6106C24.392 33.6106 23.1717 34.7925 23.1717 36.2409C23.1717 37.6892 24.392 38.8735 25.8957 38.8735C27.3994 38.8735 28.6129 37.696 28.6129 36.2409C28.6129 34.7857 27.3932 33.6106 25.8957 33.6106ZM25.8957 37.7073C25.1805 37.7073 24.5975 37.0514 24.5975 36.2397C24.5975 35.4281 25.1794 34.7722 25.8957 34.7722C26.612 34.7722 27.1939 35.4281 27.1939 36.2397C27.1939 37.0514 26.6114 37.7073 25.8957 37.7073Z" fill="#005EB8"/>
<path d="M32.6414 33.6828C32.6183 33.6901 32.7193 33.6653 32.7193 33.6653C32.8705 33.6318 33.0245 33.6129 33.1793 33.6089C33.2564 33.6053 33.3336 33.6081 33.4102 33.6173C34.6401 33.7043 35.4885 34.6689 35.4885 36.0264V38.7673H34.1208V36.0529C34.1208 35.1904 33.5795 34.8027 33.0382 34.8027C32.4738 34.8027 31.8529 35.2491 31.8529 35.852V38.769H30.4841V33.7116L30.6653 33.8375C30.893 33.9662 31.1499 34.0346 31.4115 34.0362C31.6398 34.0337 31.8653 33.9855 32.0747 33.8945C32.0747 33.8945 32.489 33.7251 32.6391 33.6834" fill="#005EB8"/>
<path d="M40.8547 38.5568C41.0438 38.478 41.2464 38.4368 41.4513 38.4355C41.7964 38.4341 42.131 38.554 42.3967 38.7741V33.7105L42.2234 33.8363C41.9936 33.9639 41.7356 34.032 41.4727 34.0345C41.2443 34.0337 41.0186 33.9859 40.8095 33.8939C40.8095 33.8939 40.7711 33.8753 40.7175 33.8533C40.6786 33.8414 40.4579 33.7404 40.3896 33.7155C40.3771 33.7155 40.2846 33.6901 40.2524 33.6805C40.1197 33.6513 39.9853 33.6301 39.8499 33.6173C39.8042 33.6173 39.7664 33.6106 39.7235 33.6106H39.6975C38.3316 33.6106 37.2264 34.7925 37.2264 36.2409C37.2495 37.7141 38.3316 38.8735 39.6975 38.8735C40.0342 38.8744 40.3667 38.7991 40.6701 38.6533L40.8547 38.5568ZM39.8347 37.7051C39.1873 37.7051 38.6584 37.0492 38.6584 36.2375C38.6584 35.4258 39.1873 34.7699 39.8347 34.7699C40.4929 34.7699 41.024 35.4258 41.024 36.2375C41.024 37.0492 40.4929 37.7051 39.8347 37.7051Z" fill="#005EB8"/>
<path d="M20.0751 35.852C20.0764 35.6513 20.1476 35.4574 20.2764 35.3035C20.4051 35.1497 20.5834 35.0454 20.7807 35.0087C20.8258 35.0014 21.4151 34.9026 21.7718 35.357V33.6495C21.6291 33.6252 21.4848 33.6122 21.34 33.6106C21.0071 33.6109 20.6787 33.6882 20.3805 33.8363L20.2569 33.8984C20.0625 33.9891 19.8504 34.0355 19.636 34.0345C19.3726 34.0344 19.114 33.964 18.887 33.8307L18.7097 33.7105V38.7685H20.0751V35.852Z" fill="#005EB8"/>
<path fill-rule="evenodd" clip-rule="evenodd" d="M56 48V0H56.5V48H56Z" fill="white"/>
<path d="M64.5 33.406C64.9983 31.4211 66.6279 31.1453 68.2845 31.078C69.5169 31.076 70.7478 31.1615 71.968 31.3337C72.0677 31.3696 72.1574 31.4286 72.23 31.5058C72.3025 31.5829 72.3558 31.6761 72.3855 31.7777C72.4132 32.3224 72.4132 32.8681 72.3855 33.4128L71.3215 33.3522C70.2778 33.3522 69.234 33.2782 68.1902 33.2782C68.0592 33.2624 67.9264 33.2754 67.8009 33.3161C67.6754 33.3568 67.5603 33.4243 67.4635 33.5139C67.3668 33.6036 67.2907 33.7132 67.2406 33.8351C67.1905 33.9571 67.1676 34.0885 67.1734 34.2202C67.1734 35.142 67.1734 36.0705 67.1734 36.9991C67.1734 37.5979 67.5774 37.8334 68.1094 37.8671C68.6414 37.9007 69.2744 37.8671 69.9411 37.8671V35.539H72.3047V39.5761L70.4798 40H67.0118C65.8401 39.6232 64.8434 39.0513 64.5 37.7661V33.406Z" fill="#FFD300"/>
<path d="M80.4529 36.9116L82.2845 39.8789C81.2946 39.8789 80.4125 39.8789 79.5236 39.8789C79.4646 39.8724 79.4076 39.8535 79.3565 39.8233C79.3055 39.7932 79.2614 39.7525 79.2273 39.704C78.4529 38.3919 77.6987 37.0731 76.8771 35.6668H78.271C78.3751 35.6801 78.4807 35.6701 78.5804 35.6375C78.6801 35.6049 78.7713 35.5506 78.8473 35.4784C78.9234 35.4063 78.9824 35.3182 79.0202 35.2204C79.058 35.1226 79.0735 35.0177 79.0657 34.9132C79.1599 33.3993 79.0657 33.2984 77.5303 33.2984H76.4663V39.8452H73.7727V31.3471C73.8437 31.3182 73.9186 31.3 73.9949 31.2933C75.8939 31.2933 77.7929 31.2933 79.6919 31.4144C81.1397 31.5019 81.7121 32.6659 81.7121 33.803C81.7121 34.052 81.7121 34.3009 81.7121 34.5432C81.7795 35.0202 81.6939 35.5064 81.4677 35.9318C81.2414 36.3573 80.8862 36.7003 80.4529 36.9116Z" fill="#FFD300"/>
<path d="M95.6246 39.8789L97.5505 33.6685C97.7525 32.9956 97.9209 32.3631 98.1498 31.7239C98.1911 31.625 98.2554 31.5374 98.3374 31.4684C98.4194 31.3993 98.5167 31.3508 98.6212 31.3269C99.6448 31.3269 100.641 31.3269 101.699 31.3269C102.023 31.3099 102.344 31.4021 102.61 31.5887C102.876 31.7753 103.072 32.0456 103.167 32.3564C103.84 34.745 104.513 37.1471 105.187 39.5425C105.201 39.6474 105.201 39.7538 105.187 39.8587H102.453L102.089 38.6274C101.059 38.6274 100.015 38.6274 98.9781 38.661C98.803 38.661 98.5471 39.0647 98.5 39.3339C98.399 39.8318 98.1364 39.9395 97.6717 39.9125C97.0387 39.8318 96.3855 39.8789 95.6246 39.8789ZM101.557 36.6088C101.308 35.6399 101.079 34.7046 100.823 33.7828C100.749 33.6286 100.626 33.5031 100.473 33.4262C100.433 33.4262 100.224 33.5541 100.19 33.655C99.8939 34.6239 99.6111 35.5995 99.3215 36.6088H101.557Z" fill="#FFD300"/>
<path d="M93.8535 39.8789C92.6751 39.8789 91.5505 39.9125 90.4259 39.8789C90.0475 39.8783 89.6818 39.7422 89.3952 39.4953C89.1086 39.2484 88.92 38.9071 88.8636 38.5332C88.2845 36.3935 87.6987 34.2516 87.1061 32.1074C87.0387 31.8518 86.9512 31.6028 86.8502 31.2731C87.7323 31.2731 88.5606 31.2731 89.3889 31.2731C89.5236 31.2731 89.7121 31.5355 89.766 31.7105C90.1902 33.2109 90.5875 34.7248 90.9916 36.232C91.0993 36.6088 91.2071 36.9856 91.335 37.3557C91.4101 37.4829 91.5006 37.6004 91.6044 37.7056C91.7189 37.5845 91.9007 37.4903 91.9411 37.349C92.3586 36.0033 92.7492 34.6576 93.1465 33.2715C93.234 32.9956 93.335 32.7265 93.4226 32.4506C93.5572 32.0671 93.5774 31.4951 93.8535 31.3404C94.1296 31.1856 94.7357 31.2596 95.2003 31.2462H96.4798C95.5976 34.1664 94.7357 36.9789 93.8535 39.8789Z" fill="#FFD300"/>
<path d="M83.3822 31.3135H85.9815V39.8116H83.3822V31.3135Z" fill="#FFD300"/>
<path d="M105.975 39.8789V31.3269H108.601V37.7123H112.365C112.089 38.4323 111.86 39.058 111.598 39.6838C111.557 39.778 111.369 39.8453 111.241 39.852L105.975 39.8789Z" fill="#FFD300"/>
</svg>
