<svg xmlns="http://www.w3.org/2000/svg" viewBox="0 0 850.39 850.39"><defs><style>.cls-1{fill:#005ab2;}.cls-2{fill:#fff;}</style></defs><g id="Layer_2" data-name="Layer 2"><g id="Capa_1" data-name="Capa 1"><rect class="cls-1" width="850.39" height="850.39"/><path class="cls-2" d="M147.25,616c6.21,0,14.45,2.29,19.39,8.6l1,1.33L183,614.65l-1.08-1.42a46.64,46.64,0,0,0-36.48-17.77c-25.49,0-46.18,20.95-46.18,46.6s20.69,46.64,46.18,46.64a46.19,46.19,0,0,0,36.29-17.86l1-1.33-15.22-11.45-1,1.61c-3.84,6.19-12.81,8.37-19.24,8.37-12.72,0-22.72-11.33-22.72-26s10-26,22.72-26"/><path class="cls-2" d="M251.3,595.46c-26.61,0-48.22,20.94-48.22,46.6s21.61,46.64,48.22,46.64,48.2-20.86,48.2-46.64-21.64-46.6-48.2-46.6m0,72.58c-12.65,0-22.94-11.62-22.94-26s10.29-26,22.94-26,23.08,11.62,23.08,26S264,668,251.3,668"/><path class="cls-2" d="M458.78,595.46c-26.64,0-48.26,20.94-48.26,46.6s21.62,46.64,48.26,46.64,48.14-20.86,48.14-46.64-21.61-46.6-48.14-46.6m0,72.58c-12.67,0-23-11.62-23-26s10.31-26,23-26,23,11.62,23,26-10.32,26-23,26"/><path class="cls-2" d="M578.29,596.74c-.41.13,1.38-.31,1.38-.31a42.9,42.9,0,0,1,8.15-1,24.59,24.59,0,0,1,4.09.15c21.79,1.54,36.82,18.63,36.82,42.68v48.56H604.5V638.73c0-15.28-9.59-22.15-19.18-22.15-10,0-21,7.91-21,18.59v51.68H540.07v-89.6l3.21,2.23A27.2,27.2,0,0,0,556.5,603a30.3,30.3,0,0,0,11.75-2.51s7.34-3,10-3.74"/><path class="cls-2" d="M723.8,683.09a27.93,27.93,0,0,1,10.57-2.15,26.09,26.09,0,0,1,16.75,6l0-89.71-3.07,2.23a27.94,27.94,0,0,1-13.3,3.51A29.42,29.42,0,0,1,723,600.48s-.68-.33-1.63-.72c-.69-.21-4.6-2-5.81-2.44-.22,0-1.86-.45-2.43-.62a58.8,58.8,0,0,0-7.13-1.12c-.81,0-1.48-.12-2.24-.12h-.46c-24.2,0-43.78,20.94-43.78,46.6.41,26.1,19.58,46.64,43.78,46.64a39.53,39.53,0,0,0,17.23-3.9ZM705.73,668c-11.47,0-20.84-11.62-20.84-26s9.37-26,20.84-26c11.66,0,21.07,11.62,21.07,26s-9.41,26-21.07,26"/><path class="cls-2" d="M355.66,635.17a15.3,15.3,0,0,1,12.5-14.94c.8-.13,11.24-1.88,17.56,6.17V596.15a49,49,0,0,0-7.65-.69,38.31,38.31,0,0,0-17,4l-2.19,1.1a25.71,25.71,0,0,1-11,2.41,26.22,26.22,0,0,1-13.27-3.61l-3.14-2.13v89.61h24.19Z"/></g></g></svg>