<svg width="31" height="30" viewBox="0 0 31 30" fill="none" xmlns="http://www.w3.org/2000/svg">
<path d="M0.75 15C0.75 21.4037 4.76375 26.8713 10.4125 29.0225C10.275 27.8512 10.1287 25.92 10.4438 24.565C10.715 23.4 12.195 17.1425 12.195 17.1425C12.195 17.1425 11.7487 16.2487 11.7487 14.925C11.7487 12.85 12.9513 11.3 14.45 11.3C15.725 11.3 16.34 12.2563 16.34 13.4025C16.34 14.6838 15.5238 16.5987 15.1025 18.375C14.7513 19.8612 15.8488 21.0737 17.3138 21.0737C19.9675 21.0737 22.0088 18.275 22.0088 14.235C22.0088 10.6587 19.4387 8.16 15.77 8.16C11.5225 8.16 9.02875 11.3462 9.02875 14.64C9.02875 15.9237 9.5225 17.2987 10.14 18.0475C10.1926 18.104 10.2298 18.1732 10.248 18.2483C10.2662 18.3234 10.2647 18.4019 10.2437 18.4762C10.13 18.9487 9.8775 19.9625 9.82875 20.17C9.7625 20.4425 9.6125 20.5012 9.32875 20.3687C7.46375 19.5012 6.29875 16.775 6.29875 14.585C6.29875 9.87375 9.72 5.54875 16.1638 5.54875C21.3438 5.54875 25.37 9.24 25.37 14.1725C25.37 19.3188 22.1262 23.4612 17.6213 23.4612C16.1075 23.4612 14.6862 22.6737 14.1987 21.745C14.1987 21.745 13.45 24.5975 13.2688 25.295C12.9163 26.65 11.9387 28.365 11.3325 29.3388C12.73 29.7688 14.2125 30 15.75 30C24.0338 30 30.75 23.2838 30.75 15C30.75 6.71625 24.0338 0 15.75 0C7.46625 0 0.75 6.71625 0.75 15Z" fill="#003865"/>
</svg>
