<svg width="35" height="22" viewBox="0 0 35 22" fill="none" xmlns="http://www.w3.org/2000/svg">
<path d="M34.2671 3.4518C34.069 2.78566 33.683 2.18256 33.1502 1.70663C32.6023 1.21607 31.9309 0.865156 31.1992 0.687017C28.4608 0.00681409 17.4898 0.00681424 17.4898 0.00681424C12.9161 -0.0422254 8.34353 0.173463 3.79789 0.652663C3.06618 0.843963 2.39598 1.20272 1.8469 1.69702C1.30739 2.18621 0.91661 2.78946 0.712471 3.45043C0.222089 5.94003 -0.0161719 8.46791 0.000899938 11C-0.0165977 13.5298 0.221079 16.0569 0.712471 18.5496C0.912236 19.2078 1.30156 19.8083 1.84253 20.2934C2.3835 20.7784 3.05716 21.1288 3.79789 21.3143C6.57272 21.9932 17.4898 21.9932 17.4898 21.9932C22.0693 22.0423 26.6477 21.8266 31.1992 21.3473C31.9309 21.1692 32.6023 20.8183 33.1502 20.3277C33.6897 19.8426 34.0732 19.2394 34.2657 18.5825C34.7689 16.0939 35.0135 13.565 34.9962 11.0316C35.034 8.48751 34.7897 5.94665 34.2671 3.45043V3.4518ZM14.0019 15.7051V6.29629L23.1299 11.0014L14.0019 15.7051Z" fill="#003865"/>
</svg>
