<svg width="17" height="12" viewBox="0 0 17 12" fill="none" xmlns="http://www.w3.org/2000/svg">
<path fill-rule="evenodd" clip-rule="evenodd" d="M0.5 5.89001C0.5 5.73847 0.5602 5.59313 0.667357 5.48598C0.774514 5.37882 0.91985 5.31862 1.07139 5.31862L14.5482 5.31862L10.9519 1.72342C10.8446 1.61613 10.7843 1.47061 10.7843 1.31888C10.7843 1.16714 10.8446 1.02162 10.9519 0.91433C11.0592 0.807037 11.2047 0.746762 11.3565 0.746762C11.5082 0.746762 11.6537 0.807037 11.761 0.91433L16.3321 5.48547C16.3853 5.53854 16.4276 5.6016 16.4564 5.67102C16.4852 5.74044 16.5 5.81486 16.5 5.89001C16.5 5.96517 16.4852 6.03959 16.4564 6.10901C16.4276 6.17843 16.3853 6.24148 16.3321 6.29456L11.761 10.8657C11.6537 10.973 11.5082 11.0333 11.3565 11.0333C11.2047 11.0333 11.0592 10.973 10.9519 10.8657C10.8446 10.7584 10.7843 10.6129 10.7843 10.4612C10.7843 10.3094 10.8446 10.1639 10.9519 10.0566L14.5482 6.46141L1.07139 6.46141C0.91985 6.46141 0.774514 6.4012 0.667357 6.29405C0.5602 6.18689 0.5 6.04156 0.5 5.89001Z" fill="white"/>
</svg>
