<svg width="39" height="38" viewBox="0 0 39 38" fill="none" xmlns="http://www.w3.org/2000/svg">
<path fill-rule="evenodd" clip-rule="evenodd" d="M36.1034 5.17381C36.1034 4.55298 35.8568 3.95759 35.4178 3.5186C34.9789 3.07962 34.3835 2.833 33.7628 2.833H5.67527C5.0545 2.833 4.45915 3.07962 4.0202 3.5186C3.58124 3.95759 3.33464 4.55298 3.33464 5.17381V33.2635C3.33464 33.8843 3.58124 34.4797 4.0202 34.9187C4.45915 35.3577 5.0545 35.6043 5.67527 35.6043H33.7628C34.3835 35.6043 34.9789 35.3577 35.4178 34.9187C35.8568 34.4797 36.1034 33.8843 36.1034 33.2635V5.17381ZM0.994019 5.17381C0.994019 3.93216 1.48722 2.74138 2.36513 1.8634C3.24303 0.985428 4.43372 0.492188 5.67527 0.492188L33.7628 0.492188C35.0043 0.492188 36.195 0.985428 37.0729 1.8634C37.9508 2.74138 38.444 3.93216 38.444 5.17381V33.2635C38.444 34.5052 37.9508 35.6959 37.0729 36.5739C36.195 37.4519 35.0043 37.9451 33.7628 37.9451H5.67527C4.43372 37.9451 3.24303 37.4519 2.36513 36.5739C1.48722 35.6959 0.994019 34.5052 0.994019 33.2635V5.17381ZM14.696 12.538C14.4763 12.3182 14.1782 12.1948 13.8675 12.1948C13.5567 12.1948 13.2586 12.3182 13.0389 12.538C12.8191 12.7578 12.6957 13.0558 12.6957 13.3666C12.6957 13.6774 12.8191 13.9755 13.0389 14.1953L22.6284 23.7832H16.1496C15.8392 23.7832 15.5415 23.9065 15.322 24.126C15.1026 24.3455 14.9793 24.6432 14.9793 24.9536C14.9793 25.264 15.1026 25.5617 15.322 25.7812C15.5415 26.0007 15.8392 26.124 16.1496 26.124H25.4536C25.7639 26.124 26.0616 26.0007 26.2811 25.7812C26.5006 25.5617 26.6239 25.264 26.6239 24.9536V15.6489C26.6239 15.3385 26.5006 15.0408 26.2811 14.8213C26.0616 14.6018 25.7639 14.4785 25.4536 14.4785C25.1432 14.4785 24.8455 14.6018 24.626 14.8213C24.4065 15.0408 24.2832 15.3385 24.2832 15.6489V22.1283L14.696 12.538Z" fill="#3A849A"/>
</svg>
