<svg width="41" height="64" viewBox="0 0 41 64" fill="none" xmlns="http://www.w3.org/2000/svg">
<path fill-rule="evenodd" clip-rule="evenodd" d="M20.2528 0C20.8496 0 21.4219 0.237053 21.8438 0.65901C22.2658 1.08097 22.5028 1.65326 22.5028 2.25V55.3185L36.6598 41.157C37.0823 40.7345 37.6554 40.4972 38.2528 40.4972C38.8503 40.4972 39.4234 40.7345 39.8458 41.157C40.2683 41.5795 40.5057 42.1525 40.5057 42.75C40.5057 43.3475 40.2683 43.9205 39.8458 44.343L21.8458 62.343C21.6368 62.5525 21.3885 62.7188 21.1152 62.8322C20.8418 62.9456 20.5488 63.004 20.2528 63.004C19.9569 63.004 19.6638 62.9456 19.3905 62.8322C19.1171 62.7188 18.8688 62.5525 18.6598 62.343L0.659842 44.343C0.237352 43.9205 -1.40774e-08 43.3475 0 42.75C1.40774e-08 42.1525 0.237352 41.5795 0.659842 41.157C1.08233 40.7345 1.65535 40.4972 2.25284 40.4972C2.85033 40.4972 3.42335 40.7345 3.84584 41.157L18.0028 55.3185V2.25C18.0028 1.65326 18.2399 1.08097 18.6619 0.65901C19.0838 0.237053 19.6561 0 20.2528 0V0Z" fill="#2E2E82"/>
</svg>
