<svg width="17" height="12" viewBox="0 0 17 12" fill="none" xmlns="http://www.w3.org/2000/svg">
<path fill-rule="evenodd" clip-rule="evenodd" d="M16.5 5.99872C16.5 6.15026 16.4398 6.2956 16.3326 6.40276C16.2255 6.50991 16.0802 6.57011 15.9286 6.57011L2.45175 6.57011L6.0481 10.1653C6.15539 10.2726 6.21566 10.4181 6.21566 10.5699C6.21566 10.7216 6.15539 10.8671 6.0481 10.9744C5.9408 11.0817 5.79528 11.142 5.64355 11.142C5.49182 11.142 5.3463 11.0817 5.239 10.9744L0.667866 6.40326C0.614655 6.35019 0.572438 6.28713 0.543632 6.21771C0.514827 6.1483 0.5 6.07388 0.5 5.99872C0.5 5.92356 0.514827 5.84914 0.543632 5.77972C0.572438 5.7103 0.614655 5.64725 0.667866 5.59417L5.239 1.02304C5.3463 0.915744 5.49182 0.855468 5.64355 0.855468C5.79528 0.855468 5.9408 0.915744 6.0481 1.02304C6.15539 1.13033 6.21566 1.27585 6.21566 1.42758C6.21566 1.57932 6.15539 1.72484 6.0481 1.83213L2.45175 5.42733L15.9286 5.42733C16.0802 5.42733 16.2255 5.48753 16.3326 5.59469C16.4398 5.70184 16.5 5.84718 16.5 5.99872Z" fill="#3A849A"/>
</svg>
