<svg width="17" height="12" viewBox="0 0 17 12" fill="none" xmlns="http://www.w3.org/2000/svg">
<path fill-rule="evenodd" clip-rule="evenodd" d="M16.5 5.89002C16.5 6.04156 16.4398 6.1869 16.3326 6.29405C16.2255 6.40121 16.0802 6.46141 15.9286 6.46141L2.45175 6.46141L6.0481 10.0566C6.15539 10.1639 6.21566 10.3094 6.21566 10.4612C6.21566 10.6129 6.15539 10.7584 6.0481 10.8657C5.9408 10.973 5.79528 11.0333 5.64355 11.0333C5.49182 11.0333 5.3463 10.973 5.239 10.8657L0.667866 6.29456C0.614655 6.24148 0.572438 6.17843 0.543632 6.10901C0.514827 6.03959 0.5 5.96517 0.5 5.89002C0.5 5.81486 0.514827 5.74044 0.543632 5.67102C0.572438 5.6016 0.614655 5.53855 0.667866 5.48547L5.239 0.914333C5.3463 0.807041 5.49182 0.746765 5.64355 0.746765C5.79528 0.746765 5.9408 0.807041 6.0481 0.914333C6.15539 1.02163 6.21566 1.16714 6.21566 1.31888C6.21566 1.47061 6.15539 1.61613 6.0481 1.72342L2.45175 5.31862L15.9286 5.31862C16.0802 5.31862 16.2255 5.37882 16.3326 5.48598C16.4398 5.59314 16.5 5.73847 16.5 5.89002V5.89002Z" fill="#2E2E82"/>
</svg>
