<svg width="20" height="31" viewBox="0 0 20 31" fill="none" xmlns="http://www.w3.org/2000/svg">
<path fill-rule="evenodd" clip-rule="evenodd" d="M10.3303 0.418945C10.6152 0.418945 10.8885 0.532126 11.0899 0.733588C11.2914 0.93505 11.4046 1.20829 11.4046 1.4932V26.8306L18.1638 20.0692C18.3655 19.8675 18.6391 19.7542 18.9244 19.7542C19.2096 19.7542 19.4832 19.8675 19.6849 20.0692C19.8866 20.271 20 20.5445 20 20.8298C20 21.1151 19.8866 21.3887 19.6849 21.5904L11.0909 30.1844C10.9911 30.2845 10.8725 30.3638 10.742 30.418C10.6115 30.4722 10.4716 30.5 10.3303 30.5C10.189 30.5 10.0491 30.4722 9.91858 30.418C9.78807 30.3638 9.66952 30.2845 9.56973 30.1844L0.975684 21.5904C0.773967 21.3887 0.660645 21.1151 0.660645 20.8298C0.660645 20.5445 0.773967 20.271 0.975684 20.0692C1.1774 19.8675 1.45099 19.7542 1.73626 19.7542C2.02153 19.7542 2.29511 19.8675 2.49683 20.0692L9.25605 26.8306V1.4932C9.25605 1.20829 9.36923 0.93505 9.57069 0.733588C9.77216 0.532126 10.0454 0.418945 10.3303 0.418945Z" fill="#3A849A"/>
</svg>
