<svg width="16" height="12" viewBox="0 0 16 12" fill="none" xmlns="http://www.w3.org/2000/svg">
<path fill-rule="evenodd" clip-rule="evenodd" d="M16 5.99994C16 6.15148 15.9398 6.29682 15.8326 6.40398C15.7255 6.51113 15.5802 6.57133 15.4286 6.57133L1.95175 6.57133L5.5481 10.1665C5.65539 10.2738 5.71566 10.4193 5.71566 10.5711C5.71566 10.7228 5.65539 10.8683 5.5481 10.9756C5.4408 11.0829 5.29528 11.1432 5.14355 11.1432C4.99182 11.1432 4.8463 11.0829 4.739 10.9756L0.167866 6.40449C0.114655 6.35141 0.072438 6.28835 0.0436323 6.21894C0.0148265 6.14952 -2.28104e-07 6.0751 -2.24819e-07 5.99994C-2.21533e-07 5.92478 0.0148266 5.85036 0.0436323 5.78094C0.072438 5.71153 0.114655 5.64847 0.167866 5.59539L4.739 1.02426C4.8463 0.916965 4.99182 0.856689 5.14355 0.856689C5.29528 0.856689 5.4408 0.916965 5.5481 1.02426C5.65539 1.13155 5.71566 1.27707 5.71566 1.4288C5.71566 1.58054 5.65539 1.72606 5.5481 1.83335L1.95175 5.42855L15.4286 5.42855C15.5802 5.42855 15.7255 5.48875 15.8326 5.59591C15.9398 5.70306 16 5.8484 16 5.99994Z" fill="white"/>
</svg>
