<svg width="41" height="64" viewBox="0 0 41 64" fill="none" xmlns="http://www.w3.org/2000/svg">
<path fill-rule="evenodd" clip-rule="evenodd" d="M20.747 0.497986C21.3437 0.497986 21.916 0.735039 22.338 1.157C22.7599 1.57895 22.997 2.15125 22.997 2.74799V55.8165L37.154 41.655C37.5765 41.2325 38.1495 40.9951 38.747 40.9951C39.3445 40.9951 39.9175 41.2325 40.34 41.655C40.7625 42.0775 40.9998 42.6505 40.9998 43.248C40.9998 43.8455 40.7625 44.4185 40.34 44.841L22.34 62.841C22.131 63.0505 21.8827 63.2168 21.6093 63.3302C21.336 63.4436 21.0429 63.502 20.747 63.502C20.451 63.502 20.158 63.4436 19.8846 63.3302C19.6113 63.2168 19.363 63.0505 19.154 62.841L1.15398 44.841C0.731492 44.4185 0.494141 43.8455 0.494141 43.248C0.494141 42.6505 0.731492 42.0775 1.15398 41.655C1.57647 41.2325 2.14949 40.9951 2.74698 40.9951C3.34447 40.9951 3.91749 41.2325 4.33998 41.655L18.497 55.8165V2.74799C18.497 2.15125 18.734 1.57895 19.156 1.157C19.578 0.735039 20.1502 0.497986 20.747 0.497986Z" fill="#3A849A"/>
</svg>
