<svg width="147" height="73" viewBox="0 0 147 73" fill="none" xmlns="http://www.w3.org/2000/svg">
<path d="M0 14.1848C0 14.3901 0.168327 14.5748 0.399775 14.5748H7.8903C8.12175 14.5748 8.29008 14.3901 8.29008 14.1848V13.0558C8.29008 12.8505 8.12175 12.6657 7.8903 12.6657H2.18824V0.59531C2.18824 0.390031 1.99888 0.205279 1.78847 0.205279H0.399775C0.168327 0.205279 0 0.390031 0 0.59531V14.1848Z" fill="white"/>
<path d="M9.08913 14.5748H10.4147C10.6672 14.5748 10.8355 14.4106 10.8986 14.2669L12.1821 11.4546H19.0625L20.367 14.2669C20.4512 14.4517 20.5985 14.5748 20.8509 14.5748H22.1765C22.4921 14.5748 22.6605 14.308 22.5342 14.0411L16.1168 0.225807C16.0536 0.10264 15.8643 0 15.7591 0H15.5487C15.4435 0 15.2541 0.10264 15.191 0.225807L8.73144 14.0411C8.6052 14.308 8.77352 14.5748 9.08913 14.5748ZM13.0027 9.68919L15.5697 4.06453H15.6749L18.2629 9.68919H13.0027Z" fill="white"/>
<path d="M24.575 14.1848C24.575 14.3901 24.7644 14.5748 24.9748 14.5748H26.3003C26.5318 14.5748 26.7001 14.3901 26.7001 14.1848V4.1877H26.7422L35.6004 14.4927C35.8529 14.7801 36.0002 14.7801 36.2106 14.7801H36.3999C36.6103 14.7801 36.7997 14.6159 36.7997 14.4106V0.59531C36.7997 0.390031 36.6103 0.205279 36.3999 0.205279H35.0533C34.8219 0.205279 34.6535 0.390031 34.6535 0.59531V10.305H34.6115L25.7743 0.307919C25.5008 -2.36818e-07 25.3535 0 25.1431 0H24.9748C24.7644 0 24.575 0.164224 24.575 0.369503V14.1848Z" fill="white"/>
<path d="M39.6548 14.5748H48.492C48.7234 14.5748 48.8918 14.3901 48.8918 14.1848V13.0147C48.8918 12.8094 48.7234 12.6247 48.492 12.6247H42.3481V12.6042L49.1653 1.12904C49.3126 0.862173 49.3126 0.80059 49.3126 0.59531C49.3126 0.390031 49.1232 0.205279 48.9128 0.205279H40.265C40.0546 0.205279 39.8652 0.390031 39.8652 0.59531V1.78593C39.8652 1.99121 40.0546 2.17596 40.265 2.17596H46.1985V2.25807L39.4234 13.5279C39.2551 13.8153 39.2551 13.9179 39.2551 14.1848C39.2551 14.3901 39.4444 14.5748 39.6548 14.5748Z" fill="white"/>
<path d="M50.3899 14.5748H51.7155C51.968 14.5748 52.1363 14.4106 52.1994 14.2669L53.4829 11.4546H60.3633L61.6678 14.2669C61.752 14.4517 61.8992 14.5748 62.1517 14.5748H63.4773C63.7929 14.5748 63.9612 14.308 63.835 14.0411L57.4176 0.225807C57.3544 0.10264 57.1651 0 57.0599 0H56.8494C56.7442 0 56.5549 0.10264 56.4918 0.225807L50.0322 14.0411C49.906 14.308 50.0743 14.5748 50.3899 14.5748ZM54.3035 9.68919L56.8705 4.06453H56.9757L59.5637 9.68919H54.3035Z" fill="white"/>
<path d="M64.9921 14.1027C64.95 14.3901 65.0973 14.5748 65.3919 14.5748H66.7595C66.9278 14.5748 67.1172 14.4311 67.1382 14.2874L68.6532 5.11146C68.6742 5.11146 68.7163 5.11146 68.7373 5.11146L72.5457 14.5543C72.5878 14.6775 72.7351 14.7801 72.9034 14.7801H73.2822C73.4715 14.7801 73.5978 14.6775 73.6398 14.5543L77.4272 5.11146C77.4272 5.11146 77.4693 5.11146 77.4903 5.11146L79.0473 14.2874C79.0894 14.4311 79.2577 14.5748 79.4471 14.5748H80.8148C81.1093 14.5748 81.2566 14.3901 81.1935 14.1027L78.6055 0.307919C78.5634 0.143696 78.3951 0 78.2267 0H77.8901C77.7428 0 77.5745 0.10264 77.5324 0.225807L73.1559 10.7156H73.0717L68.6742 0.225807C68.6321 0.10264 68.4428 0 68.3165 0H67.9799C67.8115 0 67.6432 0.143696 67.6011 0.307919L64.9921 14.1027Z" fill="white"/>
<path d="M84.1632 14.1848C84.1632 14.3901 84.3526 14.5748 84.563 14.5748H85.9517C86.1621 14.5748 86.3514 14.3901 86.3514 14.1848V0.59531C86.3514 0.390031 86.1621 0.205279 85.9517 0.205279H84.563C84.3526 0.205279 84.1632 0.390031 84.1632 0.59531V14.1848Z" fill="white"/>
<path d="M90.1837 14.1848C90.1837 14.3901 90.352 14.5748 90.5834 14.5748H98.9998C99.2312 14.5748 99.3995 14.3901 99.3995 14.1848V13.0558C99.3995 12.8505 99.2312 12.6657 98.9998 12.6657H92.3509V8.25223H97.9688C98.1792 8.25223 98.3685 8.08801 98.3685 7.8622V6.71264C98.3685 6.50736 98.1792 6.32261 97.9688 6.32261H92.3509V2.13491H98.9998C99.2312 2.13491 99.3995 1.95015 99.3995 1.74488V0.59531C99.3995 0.390031 99.2312 0.205279 98.9998 0.205279H90.5834C90.352 0.205279 90.1837 0.390031 90.1837 0.59531V14.1848Z" fill="white"/>
<path d="M102.307 14.1848C102.307 14.3901 102.496 14.5748 102.707 14.5748H104.032C104.264 14.5748 104.432 14.3901 104.432 14.1848V4.1877H104.474L113.332 14.4927C113.585 14.7801 113.732 14.7801 113.942 14.7801H114.132C114.342 14.7801 114.531 14.6159 114.531 14.4106V0.59531C114.531 0.390031 114.342 0.205279 114.132 0.205279H112.785C112.554 0.205279 112.385 0.390031 112.385 0.59531V10.305H112.343L103.506 0.307919C103.233 -2.36818e-07 103.085 0 102.875 0H102.707C102.496 0 102.307 0.164224 102.307 0.369503V14.1848Z" fill="white"/>
<path d="M120.816 14.1848C120.816 14.3901 121.006 14.5748 121.216 14.5748H122.605C122.815 14.5748 123.005 14.3901 123.005 14.1848V2.13491H126.434C126.666 2.13491 126.834 1.95015 126.834 1.74488V0.59531C126.834 0.390031 126.666 0.205279 126.434 0.205279H117.387C117.155 0.205279 116.987 0.390031 116.987 0.59531V1.74488C116.987 1.95015 117.155 2.13491 117.387 2.13491H120.816V14.1848Z" fill="white"/>
<path d="M127.888 7.41059C127.888 11.5162 131.233 14.7801 135.442 14.7801C139.65 14.7801 143.016 11.5162 143.016 7.41059C143.016 3.305 139.65 0 135.442 0C131.233 0 127.888 3.305 127.888 7.41059ZM129.992 7.41059C129.992 4.49562 132.454 1.99121 135.442 1.99121C138.45 1.99121 140.912 4.49562 140.912 7.41059C140.912 10.3461 138.45 12.7889 135.442 12.7889C132.454 12.7889 129.992 10.3461 129.992 7.41059Z" fill="white"/>
<path d="M11.9037 65.5762C16.424 60.5044 21.7732 54.4037 25.8415 49.626C30.0605 44.7012 33.3001 40.7321 33.3001 34.9253C33.3001 26.987 27.4236 20.0777 16.2734 20.0777C7.08193 20.0777 1.28077 27.5015 1.28077 27.5015C0.678057 28.0895 0.828736 29.0451 1.35611 29.4861L3.993 32.0587C4.59572 32.6467 5.42445 32.6467 6.02717 32.0587C8.13668 29.8536 11.6776 26.987 15.8967 26.987C22.7526 26.987 25.4648 31.3972 25.4648 35.2193C25.4648 38.3065 23.4306 41.9816 19.5883 46.2448C14.0885 52.4926 6.55455 61.46 0.904076 67.8548C0 68.8838 0 69.2513 0 70.2069V70.7949C0 71.6034 0.602717 72.265 1.50679 72.265H31.492C32.3207 72.265 32.9988 71.7504 32.9988 70.7949V67.1932C32.9988 66.1642 32.3207 65.7232 31.492 65.7232H11.9037V65.5762Z" fill="white"/>
<path d="M62.2141 73C74.4191 73 81.4257 63.0771 81.4257 46.5388C81.4257 29.9271 74.4191 20.0777 62.2141 20.0777C50.009 20.0777 43.0025 29.9271 43.0025 46.5388C43.0025 63.0771 50.009 73 62.2141 73ZM62.2141 66.1642C54.9815 66.1642 50.8378 59.1079 50.8378 46.5388C50.8378 34.1168 54.9815 27.0605 62.2141 27.0605C69.4467 27.0605 73.5903 34.1168 73.5903 46.5388C73.5903 59.1079 69.4467 66.1642 62.2141 66.1642Z" fill="white"/>
<path d="M101.737 65.5762C106.258 60.5044 111.607 54.4037 115.675 49.626C119.894 44.7012 123.134 40.7321 123.134 34.9253C123.134 26.987 117.257 20.0777 106.107 20.0777C96.9156 20.0777 91.1145 27.5015 91.1145 27.5015C90.5117 28.0895 90.6624 29.0451 91.1898 29.4861L93.8267 32.0587C94.4294 32.6467 95.2581 32.6467 95.8609 32.0587C97.9704 29.8536 101.511 26.987 105.73 26.987C112.586 26.987 115.298 31.3972 115.298 35.2193C115.298 38.3065 113.264 41.9816 109.422 46.2448C103.922 52.4926 96.3882 61.46 90.7378 67.8548C89.8337 68.8838 89.8337 69.2513 89.8337 70.2069V70.7949C89.8337 71.6034 90.4364 72.265 91.3405 72.265H121.326C122.154 72.265 122.832 71.7504 122.832 70.7949V67.1932C122.832 66.1642 122.154 65.7232 121.326 65.7232H101.737V65.5762Z" fill="white"/>
<path d="M139.391 70.7949C139.391 71.6034 140.069 72.265 140.897 72.265H145.644C146.397 72.265 147 71.6034 147 70.7949V22.2092C147 21.4742 146.397 20.8127 145.644 20.8127H143.308C142.254 20.8127 141.5 21.1067 140.671 21.7682L130.802 30.5151C130.501 30.8826 130.35 31.4707 130.576 32.0587L131.48 34.7048C131.706 35.3663 132.535 35.5133 133.213 35.2193L139.391 32.3527V70.7949Z" fill="white"/>
</svg>
